<svg width="821" height="440" viewBox="0 0 821 440" fill="none" xmlns="http://www.w3.org/2000/svg">
<path d="M773.203 401.014C768.313 391.597 748.392 384.172 739.519 382.542C692.072 373.487 642.27 374.755 594.28 374.936C541.943 375.117 491.96 383.448 439.986 387.432C413.002 389.424 384.389 385.802 357.406 384.896C312.856 383.267 268.307 381.456 223.757 379.464C185.365 377.653 145.523 381.637 111.477 402.825C107.674 405.179 103.69 408.077 102.06 412.423C91.0135 439.587 228.284 436.147 246.213 436.69C336.399 439.044 426.585 440.312 516.771 437.777C583.776 435.966 653.679 436.147 720.141 426.549C734.81 424.375 754.912 423.651 767.589 415.14C774.47 410.069 775.376 405.36 773.203 401.014Z" fill="#E7F5FE"/>
<path d="M714.705 30.4913C715.792 30.4913 717.059 30.4913 718.327 30.4913" stroke="#D2E8F9" stroke-miterlimit="10"/>
<path d="M725.573 31.0346C748.934 33.3888 777.547 43.3491 774.107 63.4508C768.855 95.6859 625.427 83.7336 591.199 84.0958C522.383 84.8202 452.842 85.0012 385.293 100.032C368.813 103.654 345.452 111.803 347.082 132.63C347.625 139.873 351.972 146.574 357.586 151.464C377.325 169.211 404.671 171.022 430.205 174.101C468.779 178.809 652.229 172.471 712.172 192.21C723.943 196.013 738.793 201.084 739.155 217.926C740.423 260.846 633.938 258.672 601.884 259.578C516.588 261.751 431.292 260.846 345.995 259.216C276.998 257.767 208 256.68 139.184 252.153C113.468 250.523 71.6347 249.98 52.0763 230.784C41.2105 220.099 39.7618 200.359 56.9659 190.399C69.0994 183.336 104.956 186.415 118.72 185.329C160.372 181.707 147.695 156.534 114.011 153.274" stroke="#D2E8F9" stroke-miterlimit="10" stroke-dasharray="4.01 4.01"/>
<path d="M110.57 153.274C109.302 153.274 108.216 153.274 106.948 153.274" stroke="#D2E8F9" stroke-miterlimit="10"/>
<path d="M717.241 61.821L706.194 3.68908C705.469 0.248256 701.304 -1.2005 698.769 1.15375L654.038 39.7272C651.322 42.0815 652.227 46.4278 655.487 47.5143L711.264 67.0727C714.524 68.1593 717.784 65.2618 717.241 61.821Z" fill="#F0FAFF"/>
<path d="M708.73 60.9154C708.368 60.9154 708.187 60.9154 707.825 60.7343L662.008 44.6168C661.102 44.2546 660.378 43.5302 660.197 42.4436C660.015 41.3571 660.378 40.4516 661.102 39.7272L697.865 8.03538C698.589 7.311 699.675 7.1299 700.581 7.49209C701.486 7.85428 702.211 8.57866 702.392 9.66524L711.447 57.4746C711.628 58.5612 711.266 59.4667 710.541 60.191C709.998 60.7343 709.455 60.9154 708.73 60.9154ZM664.362 41.7192L707.644 56.9313L699.132 11.8384L664.362 41.7192Z" fill="#B5DDF7"/>
<path d="M688.808 41.5382C687.902 41.176 687.54 40.2705 687.721 39.365L692.248 23.4286C692.611 21.9798 694.24 21.0743 695.689 21.6176C697.138 22.1609 697.862 23.7908 697.319 25.2395L690.981 40.6327C690.619 41.3571 689.713 41.7193 688.808 41.5382Z" fill="#B5DDF7"/>
<path d="M689.17 45.8845C688.808 46.7899 687.902 47.3332 686.997 46.9711C686.091 46.6089 685.548 45.7034 685.91 44.7979C686.273 43.8924 687.178 43.3491 688.083 43.7113C688.989 43.8924 689.532 44.979 689.17 45.8845Z" fill="#B5DDF7"/>
<path d="M103.507 133.535L67.4692 115.606C65.296 114.52 62.7607 116.15 62.9418 118.685L65.4772 158.888C65.6582 161.243 68.3747 162.691 70.3667 161.243L104.051 138.968C105.862 137.7 105.68 134.622 103.507 133.535Z" fill="#F0FAFF"/>
<path d="M99.5239 137.881C99.3428 138.062 99.1617 138.243 98.9806 138.243L71.2728 156.534C70.7296 156.896 70.0052 156.896 69.2808 156.715C68.7375 156.353 68.1942 155.81 68.1942 155.085L66.2021 121.945C66.2021 121.22 66.5643 120.677 67.1076 120.134C67.6509 119.772 68.3753 119.772 69.0997 119.953L98.7994 134.803C99.3427 135.165 99.886 135.708 99.886 136.433C99.886 136.976 99.7049 137.519 99.5239 137.881ZM70.7296 153.999L96.8074 136.614L68.7375 122.669L70.7296 153.999Z" fill="#B5DDF7"/>
<path d="M80.6892 140.598C80.1459 140.96 79.4215 140.779 79.0593 140.236L72.1777 131.181C71.6344 130.275 71.8155 129.189 72.721 128.645C73.6264 128.102 74.713 128.283 75.2563 129.189L80.8703 138.968C81.4136 139.511 81.2325 140.236 80.6892 140.598Z" fill="#B5DDF7"/>
<path d="M83.2244 142.228C83.5866 142.771 83.4055 143.495 82.8622 143.857C82.3189 144.22 81.5946 144.039 81.2324 143.495C80.8702 142.952 81.0513 142.228 81.5946 141.865C82.1379 141.503 82.8623 141.684 83.2244 142.228Z" fill="#B5DDF7"/>
<path d="M128.499 214.847C130.199 214.847 131.577 213.469 131.577 211.769C131.577 210.068 130.199 208.69 128.499 208.69C126.798 208.69 125.42 210.068 125.42 211.769C125.42 213.469 126.798 214.847 128.499 214.847Z" stroke="#D2E8F9" stroke-miterlimit="10"/>
<path d="M574.719 159.251C576.42 159.251 577.798 157.872 577.798 156.172C577.798 154.472 576.42 153.093 574.719 153.093C573.019 153.093 571.641 154.472 571.641 156.172C571.641 157.872 573.019 159.251 574.719 159.251Z" stroke="#D2E8F9" stroke-miterlimit="10"/>
<path d="M338.027 75.041C339.727 75.041 341.105 73.6626 341.105 71.9623C341.105 70.262 339.727 68.8837 338.027 68.8837C336.327 68.8837 334.948 70.262 334.948 71.9623C334.948 73.6626 336.327 75.041 338.027 75.041Z" stroke="#D2E8F9" stroke-miterlimit="10"/>
<path d="M334.405 303.584C336.105 303.584 337.483 302.206 337.483 300.506C337.483 298.805 336.105 297.427 334.405 297.427C332.704 297.427 331.326 298.805 331.326 300.506C331.326 302.206 332.704 303.584 334.405 303.584Z" stroke="#D2E8F9" stroke-miterlimit="10"/>
<path d="M404.49 123.575V130.275" stroke="#D2E8F9" stroke-miterlimit="10" stroke-linecap="round" stroke-linejoin="round"/>
<path d="M407.749 126.834H401.049" stroke="#D2E8F9" stroke-miterlimit="10" stroke-linecap="round" stroke-linejoin="round"/>
<path d="M526.549 36.6486V43.3491" stroke="#D2E8F9" stroke-miterlimit="10" stroke-linecap="round" stroke-linejoin="round"/>
<path d="M529.808 40.0894H523.107" stroke="#D2E8F9" stroke-miterlimit="10" stroke-linecap="round" stroke-linejoin="round"/>
<path d="M715.432 220.099V226.8" stroke="#D2E8F9" stroke-miterlimit="10" stroke-linecap="round" stroke-linejoin="round"/>
<path d="M718.691 223.54H711.99" stroke="#D2E8F9" stroke-miterlimit="10" stroke-linecap="round" stroke-linejoin="round"/>
<path d="M465.519 414.596C465.519 414.596 452.842 420.029 452.842 422.746C452.842 424.375 470.227 422.021 471.314 421.116C472.943 419.486 470.589 414.958 470.589 414.958L465.519 414.596Z" fill="#26387A"/>
<path d="M464.613 406.99L465.338 414.777C465.338 414.777 465.7 416.045 467.511 416.226C469.322 416.407 470.408 414.777 470.408 414.777L469.865 404.998" fill="#FFB288"/>
<path d="M486.706 228.429C491.234 246.901 489.604 256.318 482.903 270.444C478.738 317.529 476.021 364.433 470.407 410.25L464.612 410.612C451.392 365.881 439.259 299.238 440.708 238.027" fill="#26387A"/>
<path d="M483.808 234.768C485.438 239.114 485.981 244.004 485.8 248.531C485.619 255.594 482.722 261.932 480.911 268.633C478.375 277.506 478.194 286.38 477.651 295.616C476.564 309.923 475.478 324.229 474.391 338.536C472.58 361.897 470.769 385.078 468.958 408.439C468.958 409.163 468.777 409.888 468.777 410.431" stroke="#0061A6" stroke-width="0.5" stroke-miterlimit="10"/>
<path d="M515.862 416.407C515.862 416.407 503.186 421.84 503.186 424.556C503.186 426.186 520.571 423.832 521.657 422.927C523.287 421.297 520.933 416.769 520.933 416.769L515.862 416.407Z" fill="#26387A"/>
<path d="M515.141 408.801L515.865 416.588C515.865 416.588 516.227 417.856 518.038 418.037C519.849 418.218 520.936 416.588 520.936 416.588L520.392 406.809" fill="#FFB288"/>
<path d="M528.902 226.799C534.697 245.09 533.61 254.507 527.815 268.995C526.91 316.261 523.65 365.519 521.114 411.699H515.138C499.021 368.054 481.635 300.506 479.281 239.476" fill="#26387A"/>
<path d="M526.005 234.406C526.005 234.406 532.706 250.161 521.297 272.436C520.029 293.443 519.305 411.699 519.305 411.699" stroke="#0061A6" stroke-width="0.5" stroke-miterlimit="10"/>
<path d="M509.344 239.476C510.43 241.287 512.241 242.555 514.233 243.279C516.225 244.004 518.217 244.366 520.391 244.728C522.926 245.09 525.461 245.271 527.997 245.09" stroke="#0061A6" stroke-width="0.5" stroke-miterlimit="10"/>
<path d="M510.068 242.374C512.242 244.366 514.958 245.452 517.856 246.177C520.753 246.901 523.651 246.901 526.548 247.082" stroke="#0061A6" stroke-width="0.5" stroke-miterlimit="10"/>
<path d="M459.724 138.787C439.623 173.738 417.891 205.611 405.033 243.823L401.23 241.831C402.136 206.336 413.726 154.542 428.938 122.307" fill="#FFB288"/>
<path d="M449.945 102.205C449.945 102.205 443.788 104.016 436.363 108.906C429.481 113.433 424.229 120.315 420.788 127.74C417.167 135.165 415.356 143.314 414.088 151.464C414.088 151.464 422.599 155.629 432.198 156.896C441.796 158.164 452.118 156.896 452.118 156.896" fill="#D9F0FF"/>
<path d="M434.913 123.031C432.74 160.881 434.37 199.816 435.456 236.76C435.456 236.76 448.676 240.201 480.73 240.201C512.784 240.201 533.61 230.421 533.61 230.421C527.453 192.572 522.563 146.031 507.351 114.882C507.351 114.882 490.147 96.4103 473.305 95.6859C469.865 95.5048 466.605 96.7725 463.345 98.2212C460.991 99.3078 449.944 102.024 449.944 102.024L434.913 123.031Z" fill="#D9F0FF"/>
<path d="M434.734 126.291C433.828 133.535 433.828 155.991 433.828 155.991" stroke="#94C1F2" stroke-width="0.5" stroke-miterlimit="10"/>
<path d="M466.605 248.712C520.21 242.736 542.666 310.828 554.98 337.087C583.775 399.384 692.795 392.502 742.415 392.502C807.428 392.502 836.042 414.415 805.617 425.824" stroke="#B4E8FD" stroke-width="5" stroke-miterlimit="10" stroke-linecap="round" stroke-linejoin="round"/>
<path d="M485.077 251.791C485.077 279.317 464.25 295.978 446.322 295.978H416.984V207.422H446.322C464.25 207.422 485.077 224.083 485.077 251.791Z" fill="#FDAE2B"/>
<path d="M470.048 251.791C470.048 278.774 454.111 300.687 434.372 300.687H402.137V203.076H434.372C454.111 202.895 470.048 224.807 470.048 251.791Z" fill="#EF8417"/>
<path opacity="0.5" d="M477.29 224.989C470.227 234.587 463.527 244.185 456.826 253.964C457.732 253.783 458.637 253.24 459.362 252.696C459.362 253.421 458.275 254.688 459.18 255.232C460.267 255.775 461.354 254.507 462.44 254.869C463.527 254.688 464.432 253.421 465.157 252.696C464.794 253.421 464.794 253.964 464.794 254.326C471.857 251.61 478.377 244.909 483.809 239.476C482.361 234.043 480.007 229.154 477.29 224.989Z" fill="#FDAE2B"/>
<path d="M404.488 300.687C424.192 300.687 440.164 278.795 440.164 251.791C440.164 224.786 424.192 202.895 404.488 202.895C384.785 202.895 368.812 224.786 368.812 251.791C368.812 278.795 384.785 300.687 404.488 300.687Z" fill="#FFC840"/>
<path d="M407.387 268.995C407.387 272.979 404.67 276.239 401.23 276.239C397.789 276.239 395.072 272.979 395.072 268.995C395.072 265.011 397.789 261.751 401.23 261.751C404.67 261.751 407.387 265.011 407.387 268.995Z" fill="#EF8417"/>
<path d="M407.387 234.406C407.387 238.39 404.67 241.649 401.23 241.649C397.789 241.649 395.072 238.39 395.072 234.406C395.072 230.421 397.789 227.162 401.23 227.162C404.67 227.162 407.387 230.421 407.387 234.406Z" fill="#EF8417"/>
<path d="M517.129 150.92C517.129 150.92 519.302 173.919 509.161 193.116C500.287 209.595 482.902 230.784 468.595 242.374L465.154 241.468C470.044 222.634 485.618 188.95 486.524 176.455C487.429 163.959 487.248 149.29 487.429 142.228" fill="#FFB288"/>
<path d="M473.305 95.6859C473.305 95.6859 492.32 96.9536 503.367 106.371C519.122 119.591 521.476 145.668 521.476 151.645C516.768 156.715 506.264 157.077 498.839 157.077C491.233 157.077 485.8 153.456 485.8 153.456L484.17 124.842" fill="#D9F0FF"/>
<path d="M466.605 238.933C464.432 239.114 462.44 240.201 460.448 241.649C458.818 242.917 456.826 245.09 457.007 246.177C457.188 247.263 459.905 245.271 460.267 245.633C460.629 245.996 455.558 253.602 456.464 254.145C457.369 254.688 461.716 247.807 461.716 247.807C461.716 247.807 457.551 255.051 459.18 255.232C460.448 255.413 464.251 248.531 464.251 248.531C464.251 248.531 461.172 254.688 462.259 254.869C463.346 255.051 466.243 248.893 466.243 248.893C466.243 248.893 463.889 254.145 464.794 254.326C465.157 254.326 467.511 251.791 468.597 248.531C469.503 245.452 470.589 242.736 469.865 240.201" fill="#FFB288"/>
<path d="M486.346 127.74V153.818" stroke="#94C1F2" stroke-width="0.5" stroke-miterlimit="10"/>
<path d="M434.005 71.6001C433.824 72.6867 433.824 73.9544 433.824 75.041C433.824 77.5763 434.186 80.1116 435.635 82.1037C436.541 83.5525 437.989 84.458 439.619 85.0013C440.706 85.3634 442.336 85.1823 442.698 84.0958C442.879 83.7336 442.879 83.1903 442.879 82.8281C442.879 78.6629 441.974 74.4977 440.525 70.5136" fill="#26387A"/>
<path d="M462.619 73.9544C460.99 67.616 455.919 58.7423 447.588 60.5533C442.337 61.6398 437.628 65.2617 435.998 70.1513C434.187 76.1275 437.085 83.0092 440.707 87.8988C441.974 89.7097 443.604 91.3396 445.596 92.4262C450.486 94.9615 457.005 92.7884 460.265 88.8042C463.525 84.8201 463.887 79.0251 462.619 73.9544Z" fill="#FFB288"/>
<path d="M450.847 90.6152L453.563 100.576L449.941 102.386C449.941 102.386 452.839 106.189 458.272 105.284C469.681 103.654 473.303 95.6859 473.303 95.6859L466.964 94.9615L459.902 82.8281" fill="#FFB288"/>
<path d="M468.052 67.0727C467.328 62.7264 464.068 58.9234 460.446 56.7502C453.746 52.585 444.148 52.4039 438.172 58.0179C434.731 61.2776 428.573 72.5056 435.998 74.8599C438.353 75.5842 440.707 74.1355 442.699 72.8678C444.691 71.6001 446.683 70.1513 448.856 68.8837C449.581 68.3404 450.305 67.9782 451.21 67.7971C452.659 67.7971 453.746 69.0648 454.289 70.3325C454.832 71.6001 454.832 73.23 455.195 74.4977C455.376 75.4031 455.919 76.4897 456.643 77.033C457.549 77.5763 458.816 77.3952 459.36 76.4897C459.722 75.7653 459.36 75.0409 459.36 74.3166C459.36 73.5922 459.722 72.6867 460.446 72.8678C460.627 72.8678 460.99 73.0489 461.171 73.23C462.982 74.6788 462.438 77.3952 462.982 79.5684C462.982 79.9306 462.438 84.2769 462.62 84.458C468.234 83.0092 468.777 70.1514 468.052 67.0727Z" fill="#26387A"/>
<path d="M459.721 73.23C459.54 72.5056 460.445 71.6001 461.169 71.6001C461.894 71.6001 462.799 71.9623 463.343 72.5056C464.429 73.4111 465.154 74.6788 465.154 76.1275C465.154 77.2141 464.791 78.3007 464.067 79.2062C463.705 79.7494 463.162 80.4738 462.437 80.6549C461.532 81.0171 460.445 80.4738 459.902 79.9306" fill="#FFB288"/>
<path d="M258.164 414.234C258.164 414.234 270.298 416.226 270.66 418.943C270.841 420.391 253.456 422.383 252.369 421.478C250.558 420.029 252.731 414.596 252.731 414.596L258.164 414.234Z" fill="#26387A"/>
<path d="M257.077 406.809L258.164 414.596C258.164 414.596 257.983 415.864 256.172 416.226C254.361 416.588 253.093 415.139 253.093 415.139L251.645 405.541" fill="#FFB288"/>
<path d="M211.441 230.784C209.268 249.799 209.087 258.853 217.599 271.892C221.583 290.183 227.74 309.017 232.449 327.851C230.457 350.307 244.582 386.164 252.188 411.699L257.621 410.793C265.046 364.795 267.762 294.167 261.062 232.413" fill="#26387A"/>
<path d="M215.062 256.499C215.062 256.499 236.07 323.143 236.07 326.765C236.07 330.387 236.613 342.882 237.518 350.85C239.148 365.7 252.549 409.163 252.549 409.163" stroke="#0061A6" stroke-width="0.5" stroke-miterlimit="10"/>
<path d="M252.007 412.785L251.102 409.525L258.164 409.163L258.345 412.242L252.007 412.785Z" fill="#0061A6"/>
<path d="M163.089 414.596C163.089 414.596 172.687 421.478 171.782 424.013C171.239 425.462 155.664 419.667 155.121 418.399C154.216 416.407 158.381 412.785 158.381 412.785L163.089 414.596Z" fill="#26387A"/>
<path d="M165.443 407.896L163.089 414.958C163.089 414.958 162.365 416.045 160.735 415.502C159.105 415.14 158.562 413.329 158.562 413.329L161.459 404.455" fill="#FFB288"/>
<path d="M170.514 226.799C164.719 245.09 165.805 254.507 171.6 268.995C171.963 286.199 172.144 303.765 172.325 321.151C160.01 351.937 158.018 379.464 159.648 408.801L165.624 410.974C165.624 410.974 200.938 349.402 207.457 325.135C214.882 297.246 219.048 267.365 220.315 239.476" fill="#26387A"/>
<path d="M171.962 230.784C171.962 230.784 165.624 249.618 173.954 267.727C173.954 272.798 176.852 314.812 175.765 321.332C175.222 324.41 169.427 339.26 165.624 353.748C161.278 369.684 160.372 407.533 160.372 407.533" stroke="#0061A6" stroke-width="0.5" stroke-miterlimit="10"/>
<path d="M158.381 408.801L159.467 404.817L167.073 408.439L165.444 411.88L158.381 408.801Z" fill="#0061A6"/>
<path d="M269.21 86.2689L264.501 82.2848C264.501 82.2848 264.501 75.2221 264.501 73.9544C264.501 72.6867 262.69 64.8996 261.06 64.8996C259.43 64.8996 259.068 62.9075 258.344 63.813C257.619 64.5374 259.068 73.4111 258.344 74.1355C257.619 74.8599 256.895 69.9703 256.171 70.5136C255.627 71.0569 255.446 74.6788 255.446 76.4897C255.446 78.3007 256.895 81.7415 258.344 83.1903C259.793 84.6391 266.131 91.5207 266.131 91.5207L269.21 86.2689Z" fill="#EF9467"/>
<path d="M266.856 83.5525L262.872 88.0799C262.872 88.0799 278.627 108.906 283.517 115.788C278.989 114.158 272.47 110.174 268.667 107.819C261.242 102.93 253.817 100.394 248.746 100.394C237.881 100.394 243.495 136.251 256.171 141.503C280.076 145.125 306.878 142.771 311.043 134.44C317.201 121.945 282.068 92.6073 266.856 83.5525Z" fill="#D9F0FF"/>
<path d="M283.517 115.788C283.517 115.788 286.595 124.118 291.847 126.834" stroke="#94C1F2" stroke-width="0.5" stroke-miterlimit="10"/>
<path d="M193.875 109.811C165.262 141.865 165.805 196.919 165.805 234.406C165.805 234.406 186.813 248.712 218.685 248.712C250.739 248.712 263.96 240.744 263.96 240.744C264.865 202.895 258.164 186.415 264.503 123.756C264.503 123.756 254.361 100.394 248.929 100.394C243.496 100.394 222.126 98.2213 222.126 98.2213L193.875 109.811Z" fill="#D9F0FF"/>
<path d="M262.873 142.228C262.873 142.228 263.597 131.181 266.133 128.645" stroke="#94C1F2" stroke-width="0.5" stroke-miterlimit="10"/>
<path d="M231.544 74.3166C232.631 67.7971 237.158 58.5612 245.67 59.6478C250.921 60.3722 255.087 63.9941 257.984 68.3404C260.519 71.9623 259.614 75.5842 255.992 84.8201C254.905 86.8122 252.37 90.0719 250.378 91.3396C245.851 94.2372 239.15 92.7884 235.528 88.9854C231.906 85.1823 230.639 79.3873 231.544 74.3166Z" fill="#FFB288"/>
<path d="M232.63 73.4111C233.897 73.23 232.63 72.5056 233.173 73.5922C233.535 74.3166 233.535 74.4977 234.26 74.6788C234.984 74.8599 234.984 75.5843 235.527 75.9465C236.433 76.6708 237.157 75.7654 237.519 75.041C238.244 73.5922 238.244 71.9623 238.063 70.5136C237.882 69.2459 237.519 67.4349 238.787 66.5294C239.693 65.805 241.866 66.8916 242.771 67.0727C244.22 67.4349 245.85 67.9782 247.299 68.5215C250.921 69.6081 254.724 70.6946 258.708 70.1514C261.967 69.7892 265.589 67.9782 267.038 64.8996C269.03 61.0966 265.046 56.3881 261.243 56.3881C260.156 56.3881 259.251 56.7503 258.164 56.9314C257.802 56.9314 257.44 57.1125 257.078 56.9314C256.172 56.7503 255.81 55.6637 255.448 54.9393C253.999 52.7661 251.464 52.0418 248.928 52.2229C246.031 52.585 243.496 53.8527 240.779 54.7582C239.33 55.1204 238.063 54.7582 236.614 54.7582C235.165 54.7582 233.535 55.8448 232.811 57.1124C231.543 55.8448 229.008 58.9234 228.283 59.6478C225.386 63.0886 224.48 68.1593 224.48 72.6867C224.48 76.4897 225.024 82.2848 229.37 83.7336C231.181 84.458 232.268 84.8202 232.449 83.0092C231.724 81.3793 231.543 77.9385 231.362 76.4897C231.181 75.0409 231.543 73.4111 232.992 72.8678" fill="#26387A"/>
<path d="M246.393 89.7097L245.487 99.4889L248.747 100.394C248.747 100.394 247.117 104.741 241.503 105.465C230.094 106.914 222.126 98.2213 222.126 98.2213L225.929 97.4969L231.724 79.3873" fill="#FFB288"/>
<path d="M234.441 73.4111C234.441 72.6867 233.716 71.9623 232.811 71.9623C232.086 71.9623 231.181 72.5056 230.638 73.0489C227.378 76.3086 231.543 83.9147 234.622 79.9306" fill="#FFB288"/>
<path d="M255.991 84.639C255.448 85.9067 253.456 86.2689 252.369 86.45C246.936 86.9933 242.59 83.5525 237.519 83.0092C236.433 82.8281 235.346 82.8281 234.622 83.5525C233.898 84.2769 233.897 85.3634 233.897 86.2689C233.897 87.5366 233.897 88.6232 233.897 89.8908C234.079 90.9774 234.26 91.8829 234.803 92.7884C237.157 96.5914 244.763 97.3158 248.747 97.1347C250.377 96.9536 252.007 96.7725 253.275 95.867C255.086 94.5993 255.448 92.2451 255.991 90.253C256.535 87.3555 255.991 84.639 255.991 84.639Z" fill="#26387A"/>
<path d="M252.189 88.8043C252.008 88.6232 251.827 88.6232 251.646 88.6232C249.111 88.6232 247.843 88.0799 245.851 87.8988C245.489 87.8988 245.127 87.8988 244.946 87.8988C244.221 88.0799 243.859 88.8043 243.678 89.5287C243.497 90.253 243.859 90.7963 244.583 91.1585C245.67 91.7018 247.119 91.8829 248.386 92.064C249.473 92.064 250.922 92.2451 251.827 91.5207C252.19 90.7963 252.914 89.3475 252.189 88.8043Z" fill="#FFB288"/>
<path d="M228.646 230.24C166.349 226.981 130.129 259.216 104.233 317.71C70.7299 393.77 24.0072 399.746 3 399.384" stroke="#B4E8FD" stroke-width="5" stroke-miterlimit="10" stroke-linecap="round" stroke-linejoin="round"/>
<path d="M204.741 235.311C207.095 262.838 229.189 277.688 246.936 276.239L276.093 273.885L268.668 185.691L239.511 188.045C221.764 189.494 202.387 207.784 204.741 235.311Z" fill="#FDAE2B"/>
<path d="M219.772 234.043C221.945 260.846 239.693 281.309 259.432 279.68L291.667 276.963L283.518 179.715L251.283 182.431C231.543 184.061 217.418 207.06 219.772 234.043Z" fill="#EF8417"/>
<path d="M289.195 277.314C308.829 275.676 322.926 252.533 320.681 225.623C318.437 198.713 300.7 178.226 281.066 179.864C261.431 181.502 247.334 204.645 249.579 231.555C251.824 258.465 269.561 278.952 289.195 277.314Z" fill="#FFC840"/>
<path d="M283.699 245.996C284.061 249.98 286.959 253.059 290.399 252.696C293.84 252.334 296.194 248.893 295.832 244.909C295.47 240.925 292.573 237.846 289.132 238.209C285.691 238.571 283.337 242.012 283.699 245.996Z" fill="#FDAE2B"/>
<path d="M280.801 211.587C281.164 215.572 284.061 218.65 287.502 218.288C290.943 217.926 293.297 214.485 292.935 210.501C292.573 206.517 289.675 203.438 286.234 203.8C282.793 204.163 280.439 207.603 280.801 211.587Z" fill="#FDAE2B"/>
<path d="M287.865 216.115C291.487 215.753 333.32 212.312 333.32 212.312C336.036 212.131 338.21 209.595 337.847 206.879C337.666 204.163 335.131 201.989 332.414 202.17C332.414 202.17 290.4 205.611 286.959 205.973C283.519 206.155 284.243 216.477 287.865 216.115Z" fill="#E2E8ED"/>
<path d="M290.762 250.523C294.384 250.161 336.217 246.72 336.217 246.72C338.934 246.539 341.107 244.004 340.745 241.287C340.564 238.571 338.028 236.398 335.312 236.579C335.312 236.579 293.298 240.02 289.857 240.382C286.416 240.744 287.14 250.885 290.762 250.523Z" fill="#E2E8ED"/>
<path d="M178.662 150.92C178.662 150.92 176.489 173.919 186.631 193.116C195.504 209.595 212.89 230.784 227.196 242.374L230.637 241.468C225.747 222.634 210.173 188.95 209.268 176.455C208.362 163.959 208.543 149.29 208.362 142.228" fill="#FFB288"/>
<path d="M221.945 98.2213C221.945 98.2213 202.025 99.3078 190.435 108C170.514 123.031 174.498 163.416 180.293 183.155C186.088 202.895 213.977 232.413 222.851 238.752C224.3 238.752 228.646 238.39 228.465 234.949C223.575 219.556 209.269 179.171 209.269 179.171L211.442 124.661" fill="#D9F0FF"/>
<path d="M229.19 238.933C231.363 239.114 233.355 240.201 235.347 241.649C236.977 242.917 238.969 245.09 238.788 246.177C238.607 247.263 235.89 245.271 235.528 245.633C235.166 245.996 240.237 253.602 239.331 254.145C238.426 254.688 234.079 247.807 234.079 247.807C234.079 247.807 238.245 255.051 236.615 255.232C235.347 255.413 231.544 248.531 231.544 248.531C231.544 248.531 234.623 254.688 233.536 254.869C232.45 255.051 229.552 248.893 229.552 248.893C229.552 248.893 231.906 254.145 231.001 254.326C230.639 254.326 228.284 251.791 227.198 248.531C226.292 245.452 225.206 242.736 225.93 240.201" fill="#FFB288"/>
<path d="M215.063 195.289C211.803 186.053 209.449 179.171 209.449 179.171L213.614 133.354" stroke="#94C1F2" stroke-width="0.5" stroke-miterlimit="10"/>
<path d="M175.766 144.582C175.584 157.078 177.214 172.29 180.293 183.155C183.009 192.572 190.978 204.344 199.489 214.847" stroke="#94C1F2" stroke-width="0.5" stroke-miterlimit="10"/>
<path d="M603.516 77.2141L606.775 75.041C606.775 75.041 608.224 67.9782 609.13 66.7105C610.035 65.4429 611.665 62.5453 613.476 61.2776C614.2 60.7344 617.822 58.7423 618.728 59.6478C619.09 60.01 617.641 64.1752 616.917 64.8996C616.192 65.624 614.2 68.7026 614.562 69.6081C614.925 70.5136 616.555 68.5215 616.917 67.9782C617.279 67.616 617.822 67.0727 618.003 67.616C618.366 68.5215 616.555 73.4111 615.106 74.6788C613.657 76.1275 611.484 77.3952 609.854 77.3952L604.783 81.7415" fill="#FFB288"/>
<path d="M642.085 54.2149C647.337 57.2935 650.778 63.2697 652.046 69.2459C652.227 70.3324 652.408 71.419 653.132 72.3245C653.676 73.0489 654.581 73.23 655.305 73.5922C659.652 75.5842 663.093 79.5683 664.722 84.2768C665.447 86.2689 664.904 88.9853 665.628 90.6152C666.533 92.6073 669.974 93.1505 671.966 93.6938C677.58 95.5048 681.745 101.119 681.745 107.095C681.745 112.89 677.761 118.685 672.329 120.677C673.777 122.85 673.958 125.567 673.415 128.102C672.691 130.637 671.242 132.811 669.431 134.622C662.368 142.59 651.502 146.755 640.999 146.393C637.92 146.212 634.842 145.668 632.125 144.582C628.865 143.314 626.149 141.141 623.433 138.968C620.173 136.433 616.913 133.535 615.102 129.732C613.291 125.929 613.472 121.039 616.37 117.961C612.929 118.685 609.307 116.874 607.315 113.796C605.323 110.898 604.961 107.095 605.866 103.654C606.591 100.213 608.402 97.1347 610.575 94.2371C612.023 92.2451 613.834 90.253 614.016 87.7177C614.559 83.5525 612.205 79.9306 611.661 75.9464C610.756 69.6081 610.937 64.1752 616.37 60.7344C618.181 56.2069 620.173 52.7661 625.243 51.4985C631.039 50.0497 636.834 50.9552 642.085 54.2149Z" fill="#26387A"/>
<path d="M629.048 102.205C610.939 97.4969 590.294 104.922 585.766 104.922C592.105 98.5835 603.695 84.639 607.679 79.7494C607.679 76.4897 605.687 75.4032 605.687 75.4032C605.687 75.4032 556.066 100.938 561.137 117.78C566.389 135.165 614.923 126.653 618.726 131.724" fill="#B6E9FE"/>
<path d="M632.67 264.83C632.67 266.278 626.151 298.151 625.608 301.592C624.159 311.553 629.411 321.513 629.048 336.906C628.505 355.559 620.537 406.085 619.45 408.258C618.364 410.431 613.655 408.439 613.655 408.439C613.655 408.439 599.711 340.89 598.805 313.182C598.081 290.364 601.522 241.106 601.522 241.106" fill="#FFB288"/>
<path d="M619.994 408.982C619.994 408.982 620.718 410.612 620.718 411.518C620.537 413.691 620.537 414.958 620.537 414.958H619.631L619.269 413.329C619.269 413.329 616.915 413.691 614.38 415.321C613.112 416.045 607.136 416.045 606.23 415.502C605.144 414.958 605.506 414.053 605.868 413.51C606.23 413.147 612.75 410.25 612.75 410.25" fill="#26387A"/>
<path d="M613.471 408.439C612.928 409.707 607.857 412.423 608.22 412.966C608.763 413.329 611.661 413.329 614.92 412.242C617.999 411.155 619.629 410.069 619.81 409.344L619.267 407.171" fill="#FFB288"/>
<path d="M677.581 266.097C677.581 267.546 672.149 299.6 671.786 303.041C670.7 313.001 676.314 322.78 676.133 338.174C676.133 357.008 669.613 407.533 668.708 409.707C667.802 411.88 662.913 410.069 662.913 410.069C662.913 410.069 646.795 343.063 645.165 315.356C643.898 292.537 645.709 243.279 645.709 243.279" fill="#FFB288"/>
<path d="M669.249 410.612C669.249 410.612 670.154 412.242 670.154 413.147C670.154 415.321 670.154 416.769 670.154 416.769H669.249L668.886 415.139C668.886 415.139 666.532 415.683 663.997 417.313C662.91 418.218 656.753 418.218 655.847 417.856C654.761 417.313 655.123 416.407 655.485 415.864C655.847 415.502 662.186 412.423 662.186 412.423" fill="#26387A"/>
<path d="M662.912 410.25C662.369 411.518 657.298 414.415 657.841 414.777C658.385 415.14 661.282 415.14 664.542 413.872C667.44 412.785 669.251 411.518 669.251 410.793L668.526 408.62" fill="#FFB288"/>
<path d="M661.285 184.242C661.285 184.242 675.592 193.659 681.024 216.115C688.449 246.539 677.584 306.12 677.584 306.12C677.584 306.12 655.128 312.639 630.68 312.458C606.232 312.277 591.744 303.946 591.744 302.498C591.744 301.049 588.122 255.956 593.012 225.351C598.626 190.942 612.751 181.707 612.751 181.707" fill="#2858AD"/>
<path d="M641.907 101.662C644.08 100.757 649.875 102.93 660.741 106.914C665.449 111.985 667.622 123.394 668.528 133.354C665.811 157.621 662.552 170.841 664.182 178.99C664.544 180.982 666.355 182.431 665.993 185.147C665.449 190.761 656.213 191.667 638.828 193.478C621.443 195.47 605.869 187.502 606.774 185.147C607.68 182.612 610.758 180.439 611.121 178.809C611.664 177.179 612.931 156.353 611.121 153.999C609.31 151.464 604.42 144.401 604.42 137.519C604.42 127.74 609.853 123.394 613.294 118.142C619.089 109.268 623.616 103.654 629.23 102.205C638.104 100.032 641.907 101.662 641.907 101.662Z" fill="#B6E9FE"/>
<path d="M612.569 113.977C612.569 113.977 613.112 118.142 611.12 121.583C610.396 122.669 606.593 126.653 605.688 129.189" stroke="#6CB1EF" stroke-width="0.5" stroke-miterlimit="10"/>
<path d="M637.741 89.7097C642.449 85.0012 643.174 76.1275 641.001 69.9703C638.646 63.0886 628.867 58.0179 622.167 62.3642C609.128 70.8758 622.348 104.922 637.741 89.7097Z" fill="#FFB288"/>
<path d="M628.684 88.9854L628.865 103.473C628.865 103.473 628.321 106.733 633.935 106.914C641.723 107.276 641.723 101.662 641.723 101.662L637.195 86.6311" fill="#FFB288"/>
<path d="M634.482 56.0259C632.852 54.9393 631.222 54.9393 629.592 55.8448C628.506 56.388 627.781 57.4746 626.876 57.8368C626.152 58.199 625.246 58.199 624.341 58.3801C620.538 59.4667 616.916 62.3642 615.467 65.9861C613.837 69.6081 614.38 75.5842 617.459 78.1196C617.278 75.4031 618.183 71.2379 619.632 68.8837C620.356 67.616 621.624 66.3483 623.073 66.5294C624.703 66.7105 625.608 68.5215 626.876 69.6081C628.687 71.419 631.222 71.7812 633.577 72.1434C636.293 72.5056 638.285 73.0489 639.734 75.5842C640.277 76.6708 640.639 77.9385 641.001 79.2061C641.364 80.6549 641.726 82.1037 641.907 83.7335C641.907 84.639 641.907 85.7256 642.269 86.6311C642.812 88.4421 644.623 89.5286 646.434 90.0719C647.883 90.6152 650.056 90.9774 650.962 89.3475C651.686 88.0799 652.229 86.2689 652.592 84.8201C653.497 79.9305 651.867 74.8598 649.151 70.6946C646.253 66.1672 642.088 63.0886 638.466 59.1045C636.836 58.0179 635.75 56.7502 634.482 56.0259Z" fill="#26387A"/>
<path d="M638.285 78.4818C638.647 77.3952 639.371 76.3086 640.458 76.1275C644.08 75.5842 643.536 81.0171 642.088 83.0092C641.182 84.0958 639.009 85.5445 638.104 82.4659" fill="#FFB288"/>
<path d="M677.58 191.667L675.769 195.47C675.769 195.47 669.249 197.1 668.525 198.186C667.438 199.997 665.809 202.533 665.809 203.981C665.809 205.43 665.99 211.769 667.801 211.769C668.887 211.769 671.604 206.698 672.147 205.973C673.415 204.344 678.666 203.076 678.666 198.549L681.926 191.848" fill="#FFB288"/>
<path d="M641.906 101.481C641.906 101.481 657.299 97.4969 669.252 105.103C678.488 110.898 702.573 140.236 702.573 157.077C702.573 168.305 680.118 196.375 680.118 196.375L676.314 193.659C676.314 193.659 678.488 171.565 685.007 159.613C680.118 154.723 661.465 139.873 656.756 135.165" fill="#B6E9FE"/>
<path d="M654.402 133.535C657.843 136.433 666.536 143.676 666.536 143.676" stroke="#6CB1EF" stroke-width="0.5" stroke-miterlimit="10"/>
<path d="M201.663 75.5842L183.191 60.5533C183.191 60.5533 191.521 29.7669 180.474 18.9012C174.679 13.1061 167.254 9.30304 159.467 6.40551C142.444 -0.113955 121.98 -1.56273 106.768 8.57865C95.5404 16.0036 88.6587 28.8614 85.5801 41.9004C82.8636 53.4905 83.0447 66.5294 90.2886 75.9464C93.5483 80.1116 97.8946 83.3714 102.603 85.9067C117.272 93.5128 156.026 96.4103 172.868 85.1823C177.577 82.1037 177.034 77.7574 179.026 71.2379L201.663 75.5842Z" fill="#E7F5FE"/>
<path d="M109.967 37.9717C109.967 39.143 109.77 40.1665 109.376 41.0423C108.981 41.9126 108.423 42.5776 107.701 43.0374C106.978 43.4971 106.135 43.727 105.172 43.727C104.231 43.727 103.396 43.4971 102.668 43.0374C101.94 42.5721 101.373 41.9126 100.968 41.0587C100.569 40.1994 100.364 39.2059 100.353 38.0784V37.2164C100.353 36.0669 100.552 35.0516 100.952 34.1704C101.351 33.2892 101.915 32.6159 102.643 32.1507C103.377 31.68 104.214 31.4446 105.156 31.4446C106.113 31.4446 106.956 31.6772 107.684 32.1425C108.418 32.6022 108.981 33.2727 109.376 34.154C109.77 35.0297 109.967 36.0505 109.967 37.2164V37.9717ZM108.399 37.1999C108.399 35.7823 108.114 34.6958 107.545 33.9405C106.975 33.1797 106.179 32.7993 105.156 32.7993C104.159 32.7993 103.374 33.1797 102.799 33.9405C102.23 34.6958 101.937 35.7467 101.921 37.0932V37.9717C101.921 39.3455 102.208 40.4265 102.783 41.2147C103.363 41.9974 104.159 42.3888 105.172 42.3888C106.19 42.3888 106.978 42.0193 107.536 41.2804C108.095 40.536 108.382 39.4714 108.399 38.0866V37.1999ZM111.691 39.039C111.691 38.1687 111.86 37.386 112.2 36.6909C112.545 35.9958 113.021 35.4594 113.628 35.0817C114.241 34.704 114.939 34.5152 115.722 34.5152C116.932 34.5152 117.909 34.9339 118.653 35.7714C119.403 36.6088 119.778 37.7226 119.778 39.1129V39.2196C119.778 40.0844 119.611 40.8617 119.277 41.5513C118.949 42.2355 118.475 42.7692 117.857 43.1523C117.244 43.5354 116.538 43.727 115.738 43.727C114.534 43.727 113.557 43.3083 112.807 42.4709C112.063 41.6334 111.691 40.525 111.691 39.1457V39.039ZM113.218 39.2196C113.218 40.2049 113.445 40.9958 113.899 41.5924C114.359 42.189 114.972 42.4873 115.738 42.4873C116.51 42.4873 117.123 42.1862 117.577 41.5842C118.032 40.9766 118.259 40.1282 118.259 39.039C118.259 38.0647 118.026 37.2766 117.561 36.6745C117.101 36.0669 116.488 35.7632 115.722 35.7632C114.972 35.7632 114.367 36.0615 113.908 36.6581C113.448 37.2547 113.218 38.1085 113.218 39.2196ZM129.187 39.2196C129.187 40.5716 128.877 41.6608 128.259 42.4873C127.64 43.3138 126.803 43.727 125.747 43.727C124.668 43.727 123.82 43.3849 123.201 42.7007V46.9782H121.683V34.6794H123.07L123.144 35.6646C123.762 34.8984 124.622 34.5152 125.722 34.5152C126.789 34.5152 127.632 34.9175 128.251 35.7221C128.875 36.5267 129.187 37.646 129.187 39.0801V39.2196ZM127.668 39.0472C127.668 38.0456 127.454 37.2547 127.027 36.6745C126.6 36.0943 126.015 35.8042 125.27 35.8042C124.351 35.8042 123.661 36.212 123.201 37.0275V41.2722C123.656 42.0822 124.351 42.4873 125.287 42.4873C126.015 42.4873 126.592 42.1999 127.019 41.6252C127.452 41.045 127.668 40.1857 127.668 39.0472ZM136.297 41.2065C136.297 40.796 136.141 40.4785 135.829 40.2541C135.522 40.0242 134.983 39.8272 134.211 39.663C133.445 39.4988 132.835 39.3017 132.38 39.0718C131.932 38.842 131.598 38.5683 131.379 38.2508C131.165 37.9334 131.059 37.5557 131.059 37.1178C131.059 36.3899 131.365 35.7741 131.978 35.2705C132.597 34.767 133.385 34.5152 134.343 34.5152C135.35 34.5152 136.165 34.7752 136.789 35.2952C137.419 35.8152 137.733 36.4802 137.733 37.2902H136.206C136.206 36.8743 136.028 36.5158 135.673 36.2147C135.322 35.9137 134.879 35.7632 134.343 35.7632C133.79 35.7632 133.357 35.8836 133.045 36.1244C132.733 36.3652 132.577 36.68 132.577 37.0686C132.577 37.4353 132.722 37.7117 133.013 37.8978C133.303 38.0839 133.825 38.2618 134.581 38.4315C135.342 38.6011 135.957 38.8037 136.428 39.039C136.899 39.2744 137.246 39.559 137.471 39.8929C137.701 40.2213 137.816 40.6236 137.816 41.0998C137.816 41.8934 137.498 42.5311 136.863 43.0127C136.228 43.4889 135.404 43.727 134.392 43.727C133.68 43.727 133.051 43.6011 132.504 43.3493C131.956 43.0976 131.527 42.7473 131.215 42.2984C130.908 41.8441 130.755 41.3543 130.755 40.8288H132.274C132.301 41.3379 132.504 41.7429 132.881 42.0439C133.264 42.3395 133.768 42.4873 134.392 42.4873C134.967 42.4873 135.426 42.3723 135.771 42.1424C136.122 41.9071 136.297 41.5951 136.297 41.2065ZM141.494 40.1884H140.123L140.016 31.6088H141.609L141.494 40.1884ZM139.958 42.7993C139.958 42.553 140.032 42.3477 140.18 42.1835C140.333 42.0138 140.558 41.929 140.853 41.929C141.149 41.929 141.373 42.0138 141.527 42.1835C141.68 42.3477 141.756 42.553 141.756 42.7993C141.756 43.0456 141.68 43.2508 141.527 43.415C141.373 43.5738 141.149 43.6531 140.853 43.6531C140.558 43.6531 140.333 43.5738 140.18 43.415C140.032 43.2508 139.958 43.0456 139.958 42.7993Z" fill="#94C1F2"/>
</svg>
