<svg width="37" height="37" viewBox="0 0 37 37" fill="none" xmlns="http://www.w3.org/2000/svg">
<path d="M9.25 0C7.97812 0 6.9375 1.04062 6.9375 2.3125V34.6875C6.9375 35.9594 7.97812 37 9.25 37H32.375C33.6469 37 34.6875 35.9594 34.6875 34.6875V9.25L25.4375 0H9.25Z" fill="#E2E5E7"/>
<path d="M27.75 9.25H34.6875L25.4375 0V6.9375C25.4375 8.20938 26.4781 9.25 27.75 9.25Z" fill="#B0B7BD"/>
<path d="M34.6875 16.1875L27.75 9.25H34.6875V16.1875Z" fill="#CAD1D8"/>
<path d="M30.0625 30.0625C30.0625 30.6984 29.5422 31.2188 28.9062 31.2188H3.46875C2.83281 31.2188 2.3125 30.6984 2.3125 30.0625V18.5C2.3125 17.8641 2.83281 17.3438 3.46875 17.3438H28.9062C29.5422 17.3438 30.0625 17.8641 30.0625 18.5V30.0625Z" fill="#F15642"/>
<path d="M7.35278 21.9075C7.35278 21.6022 7.59328 21.2692 7.98063 21.2692H10.1162C11.3187 21.2692 12.401 22.074 12.401 23.6164C12.401 25.0779 11.3187 25.8919 10.1162 25.8919H8.57263V27.1129C8.57263 27.5199 8.31363 27.75 7.98063 27.75C7.67538 27.75 7.35278 27.5199 7.35278 27.1129V21.9075ZM8.57263 22.4336V24.7368H10.1162C10.736 24.7368 11.2262 24.1899 11.2262 23.6164C11.2262 22.9701 10.736 22.4336 10.1162 22.4336H8.57263Z" fill="white"/>
<path d="M14.2117 27.75C13.9065 27.75 13.5735 27.5835 13.5735 27.1777V21.926C13.5735 21.5941 13.9065 21.3525 14.2117 21.3525H16.3288C20.5538 21.3525 20.4613 27.75 16.4121 27.75H14.2117ZM14.7945 22.481V26.6227H16.3288C18.8252 26.6227 18.9362 22.481 16.3288 22.481H14.7945Z" fill="white"/>
<path d="M21.9597 22.555V24.0246H24.3173C24.6503 24.0246 24.9833 24.3576 24.9833 24.6802C24.9833 24.9854 24.6503 25.2352 24.3173 25.2352H21.9597V27.1765C21.9597 27.5003 21.7296 27.7488 21.4058 27.7488C20.9988 27.7488 20.7502 27.5003 20.7502 27.1765V21.9248C20.7502 21.593 21 21.3513 21.4058 21.3513H24.6515C25.0585 21.3513 25.299 21.593 25.299 21.9248C25.299 22.2208 25.0585 22.5538 24.6515 22.5538H21.9597V22.555Z" fill="white"/>
<path d="M28.9062 31.2188H6.9375V32.375H28.9062C29.5422 32.375 30.0625 31.8547 30.0625 31.2188V30.0625C30.0625 30.6984 29.5422 31.2188 28.9062 31.2188Z" fill="#CAD1D8"/>
<path d="M9.25 0C7.97812 0 6.9375 1.04062 6.9375 2.3125V34.6875C6.9375 35.9594 7.97812 37 9.25 37H32.375C33.6469 37 34.6875 35.9594 34.6875 34.6875V9.25L25.4375 0H9.25Z" fill="#E2E5E7"/>
<path d="M27.75 9.25H34.6875L25.4375 0V6.9375C25.4375 8.20938 26.4781 9.25 27.75 9.25Z" fill="#B0B7BD"/>
<path d="M34.6875 16.1875L27.75 9.25H34.6875V16.1875Z" fill="#CAD1D8"/>
<path d="M30.0625 30.0625C30.0625 30.6984 29.5422 31.2188 28.9062 31.2188H3.46875C2.83281 31.2188 2.3125 30.6984 2.3125 30.0625V18.5C2.3125 17.8641 2.83281 17.3438 3.46875 17.3438H28.9062C29.5422 17.3438 30.0625 17.8641 30.0625 18.5V30.0625Z" fill="#50BEE8"/>
<path d="M6.69001 27.75C6.38476 27.75 6.05176 27.5824 6.05176 27.1765V21.926C6.05176 21.593 6.38476 21.3525 6.69001 21.3525H8.8071C13.032 21.3525 12.9384 27.75 8.8892 27.75H6.69001ZM7.27276 22.4798V26.6215H8.8071C11.3034 26.6215 11.4133 22.4798 8.8071 22.4798H7.27276Z" fill="white"/>
<path d="M16.4766 27.8425C14.7665 27.9165 12.9905 26.7787 12.9905 24.5137C12.9905 22.2393 14.7653 21.1212 16.4766 21.1212C18.0942 21.2033 19.7858 22.3226 19.7858 24.5137C19.7858 26.7059 18.0942 27.8425 16.4766 27.8425ZM16.3748 22.3237C15.3388 22.3237 14.2115 23.0545 14.2115 24.5148C14.2115 25.9671 15.34 26.7071 16.3748 26.7071C17.4386 26.7071 18.5752 25.9671 18.5752 24.5148C18.5752 23.0533 17.4386 22.3237 16.3748 22.3237Z" fill="white"/>
<path d="M20.8738 24.5044C20.8738 22.7203 21.993 21.186 24.1194 21.186C24.9241 21.186 25.5624 21.4265 26.2365 22.0092C26.4862 22.2393 26.514 22.6463 26.2642 22.9053C26.0145 23.1262 25.6352 23.0996 25.4132 22.8776C25.0351 22.4798 24.6466 22.37 24.1194 22.37C22.696 22.37 22.0127 23.3782 22.0127 24.5056C22.0127 25.6526 22.6868 26.7059 24.1194 26.7059C24.6466 26.7059 25.1369 26.492 25.5624 26.1139C25.848 25.8919 26.2457 26.0018 26.4122 26.2249C26.5602 26.4284 26.6331 26.7707 26.3105 27.0933C25.663 27.6957 24.8871 27.8159 24.1182 27.8159C21.882 27.8159 20.8738 26.2885 20.8738 24.5044Z" fill="white"/>
<path d="M28.9062 31.2188H6.9375V32.375H28.9062C29.5422 32.375 30.0625 31.8547 30.0625 31.2188V30.0625C30.0625 30.6984 29.5422 31.2188 28.9062 31.2188Z" fill="#CAD1D8"/>
</svg>
