<svg width="37" height="37" viewBox="0 0 37 37" fill="none" xmlns="http://www.w3.org/2000/svg">
<path d="M33.1716 17.2839L18.4999 5.97425L3.82815 17.2839C3.07088 17.8673 1.99418 17.7779 1.34421 17.0773C0.607295 16.2837 0.707195 15.03 1.56005 14.3628L17.2419 2.09419L18.4999 0.924988L19.7585 2.09419L35.4403 14.3628C36.2932 15.03 36.3931 16.2837 35.6562 17.0773C35.0056 17.7779 33.9289 17.8673 33.1716 17.2839Z" fill="#B02721"/>
<path d="M33.1716 17.2839L18.4999 5.97425L3.82815 17.2839C3.07088 17.8673 1.99418 17.7779 1.34421 17.0773C0.607295 16.2837 0.707195 15.03 1.56005 14.3628L17.2419 2.09419L18.4999 0.924988L19.7585 2.09419L35.4403 14.3628C36.2932 15.03 36.3931 16.2837 35.6562 17.0773C35.0056 17.7779 33.9289 17.8673 33.1716 17.2839Z" fill="#66AD58"/>
<path d="M18.5 5.97427L4.31665 16.9072V16.9583V35.4583H32.6833V16.9583V16.9072L18.5 5.97427Z" fill="#E0E1E2"/>
<path d="M36.3833 29.2917C36.0423 29.2917 35.7667 29.5679 35.7667 29.9083V30.525H35.15V29.9083C35.15 29.5679 34.8743 29.2917 34.5333 29.2917C34.1923 29.2917 33.9167 29.5679 33.9167 29.9083V30.525H32.6833C32.3423 30.525 32.0667 30.8013 32.0667 31.1417C32.0667 31.4821 32.3423 31.7583 32.6833 31.7583H33.9167V33.6083H32.6833C32.3423 33.6083 32.0667 33.8846 32.0667 34.225C32.0667 34.5654 32.3423 34.8417 32.6833 34.8417H33.9167V35.4583C33.9167 35.7987 34.1923 36.075 34.5333 36.075C34.8743 36.075 35.15 35.7987 35.15 35.4583V34.8417H35.7667V35.4583C35.7667 35.7987 36.0423 36.075 36.3833 36.075C36.7243 36.075 37 35.7987 37 35.4583V29.9083C37 29.5679 36.7243 29.2917 36.3833 29.2917ZM35.15 33.6083V31.7583H35.7667V33.6083H35.15Z" fill="#E0E1E2"/>
<path d="M4.31667 31.7583C4.65768 31.7583 4.93333 31.4821 4.93333 31.1417C4.93333 30.8013 4.65768 30.525 4.31667 30.525H3.08333V29.9083C3.08333 29.5679 2.80768 29.2917 2.46667 29.2917C2.12565 29.2917 1.85 29.5679 1.85 29.9083V30.525H1.23333V29.9083C1.23333 29.5679 0.957683 29.2917 0.616667 29.2917C0.27565 29.2917 0 29.5679 0 29.9083V35.4583C0 35.7987 0.27565 36.075 0.616667 36.075C0.957683 36.075 1.23333 35.7987 1.23333 35.4583V34.8417H1.85V35.4583C1.85 35.7987 2.12565 36.075 2.46667 36.075C2.80768 36.075 3.08333 35.7987 3.08333 35.4583V34.8417H4.31667C4.65768 34.8417 4.93333 34.5654 4.93333 34.225C4.93333 33.8846 4.65768 33.6083 4.31667 33.6083H3.08333V31.7583H4.31667ZM1.85 33.6083H1.23333V31.7583H1.85V33.6083Z" fill="#E0E1E2"/>
<path d="M16.65 16.3417H9.25V21.275H16.65V16.3417Z" fill="#556080"/>
<path d="M16.65 24.975H9.25V31.1417H16.65V24.975Z" fill="#556080"/>
<path d="M27.7501 16.3417H20.3501V21.275H27.7501V16.3417Z" fill="#556080"/>
<path d="M27.7501 24.975H20.3501V35.4583H27.7501V24.975Z" fill="#556080"/>
<path d="M27.7501 16.3417H20.3501V20.0417H27.7501V16.3417Z" fill="#7383BF"/>
<path d="M16.65 16.3417H9.25V18.0468H16.65V16.3417Z" fill="#7383BF"/>
<path d="M13.5667 27.4417V24.975H12.3333V27.4417H9.25V28.675H12.3333V31.1417H13.5667V28.675H16.65V27.4417H13.5667Z" fill="#7383BF"/>
</svg>
