<svg width="12" height="16" viewBox="0 0 12 16" fill="none" xmlns="http://www.w3.org/2000/svg">
<path d="M10 6.95H9.05V4C9.05 3.19109 8.72866 2.41531 8.15668 1.84332C7.58469 1.27134 6.80891 0.95 6 0.95C5.19109 0.95 4.41531 1.27134 3.84332 1.84332C3.27134 2.41531 2.95 3.19109 2.95 4V6.95H2C1.72152 6.95 1.45445 7.06063 1.25754 7.25754C1.06062 7.45445 0.95 7.72152 0.95 8V14C0.95 14.2785 1.06062 14.5455 1.25754 14.7425C1.45445 14.9394 1.72152 15.05 2 15.05H10C10.2785 15.05 10.5455 14.9394 10.7425 14.7425C10.9394 14.5455 11.05 14.2785 11.05 14V8C11.05 7.72152 10.9394 7.45445 10.7425 7.25754C10.5455 7.06063 10.2785 6.95 10 6.95ZM4.05 4C4.05 3.48283 4.25545 2.98684 4.62114 2.62114C4.98684 2.25545 5.48283 2.05 6 2.05C6.51717 2.05 7.01316 2.25545 7.37886 2.62114C7.74455 2.98684 7.95 3.48283 7.95 4V6.95H4.05V4ZM2.05 13.95V8.05H9.95V13.95H2.05Z" fill="#B0B7BD" stroke="#B0B7BD" stroke-width="0.1"/>
</svg>
