<svg width="22" height="21" viewBox="0 0 22 21" fill="none" xmlns="http://www.w3.org/2000/svg">
<path fill-rule="evenodd" clip-rule="evenodd" d="M0.881497 20.6544C0.993942 20.7174 1.12072 20.7504 1.24961 20.7501H20.7496C20.8785 20.7504 21.0053 20.7174 21.1177 20.6544C21.2302 20.5914 21.3245 20.5005 21.3916 20.3905C21.4587 20.2804 21.4962 20.1549 21.5007 20.0261C21.5052 19.8973 21.4764 19.7695 21.4171 19.6551L11.6671 0.9051C11.6042 0.782249 11.5085 0.67915 11.3908 0.607157C11.273 0.535164 11.1376 0.49707 10.9996 0.49707C10.8616 0.49707 10.7262 0.535164 10.6084 0.607157C10.4907 0.67915 10.395 0.782249 10.3321 0.9051L0.582109 19.6551C0.522821 19.7695 0.494025 19.8973 0.498499 20.0261C0.502973 20.1549 0.540566 20.2804 0.607652 20.3905C0.674738 20.5005 0.769052 20.5914 0.881497 20.6544ZM10.9996 2.8776L19.5121 19.2501H2.48711L10.9996 2.8776ZM11.7497 7.25H10.2497V14H11.7497V7.25ZM10.9997 15.5C10.7772 15.5 10.5597 15.566 10.3747 15.6896C10.1897 15.8132 10.0455 15.9889 9.96033 16.1945C9.87518 16.4 9.8529 16.6262 9.89631 16.8445C9.93972 17.0627 10.0469 17.2632 10.2042 17.4205C10.3615 17.5778 10.562 17.685 10.7802 17.7284C10.9984 17.7718 11.2246 17.7495 11.4302 17.6644C11.6358 17.5792 11.8115 17.435 11.9351 17.25C12.0587 17.065 12.1247 16.8475 12.1247 16.625C12.1247 16.3266 12.0062 16.0405 11.7952 15.8295C11.5842 15.6185 11.2981 15.5 10.9997 15.5Z" fill="#EEAF4B"/>
</svg>
