<svg width="18" height="22" viewBox="0 0 18 22" fill="none" xmlns="http://www.w3.org/2000/svg">
<path fill-rule="evenodd" clip-rule="evenodd" d="M13.5 2.75H15.75C16.1478 2.75 16.5294 2.90804 16.8107 3.18934C17.092 3.47064 17.25 3.85218 17.25 4.25V20C17.25 20.3978 17.092 20.7794 16.8107 21.0607C16.5294 21.342 16.1478 21.5 15.75 21.5H2.25C1.85218 21.5 1.47064 21.342 1.18934 21.0607C0.908035 20.7794 0.75 20.3978 0.75 20V4.25C0.75 3.85218 0.908035 3.47064 1.18934 3.18934C1.47064 2.90804 1.85218 2.75 2.25 2.75H4.5V2C4.5 1.60218 4.65804 1.22064 4.93934 0.93934C5.22064 0.658035 5.60218 0.5 6 0.5H12C12.3978 0.5 12.7794 0.658035 13.0607 0.93934C13.342 1.22064 13.5 1.60218 13.5 2V2.75ZM12 2H6V5H12V2ZM2.25 20H15.75V4.25H13.5V6.5H4.5V4.25H2.25V20ZM4.8075 11.4421L7.5 14.1346L13.1925 8.43457L14.25 9.49957L7.5 16.2496L3.75 12.4996L4.8075 11.4421Z" fill="#66AD58"/>
</svg>
