<svg width="18" height="20" viewBox="0 0 18 20" fill="none" xmlns="http://www.w3.org/2000/svg">
<path d="M11.6396 2.40189L11.6447 2.44617H11.6893H14.8024C16.0346 2.44617 17.0372 3.44892 17.0372 4.68119V4.79843C17.0372 5.73984 16.4509 6.54598 15.6248 6.87452L15.5932 6.88705V6.92098V17.715C15.5932 18.9472 14.5907 19.95 13.3585 19.95H4.64278C3.4106 19.95 2.40801 18.9473 2.40801 17.715V6.92094V6.88701L2.37648 6.87447C1.55027 6.54598 0.964063 5.73984 0.964063 4.79839V4.68114C0.964063 3.44892 1.96654 2.44617 3.19879 2.44617H6.31212H6.35669L6.36179 2.40189C6.51422 1.08008 7.63876 0.05 9.0006 0.05C10.3625 0.05 11.4872 1.08012 11.6396 2.40189ZM10.5943 2.44617H10.655L10.6434 2.38659C10.4932 1.61678 9.81425 1.03364 9.0006 1.03364C8.18723 1.03364 7.50829 1.61674 7.35809 2.38659L7.34647 2.44617H7.40716H10.5943ZM3.44161 7.03336H3.39161V7.08336V17.715C3.39161 18.405 3.95292 18.9664 4.64274 18.9664H13.3585C14.0483 18.9664 14.6096 18.405 14.6096 17.715V7.08336V7.03336H14.5596H3.44161ZM16.0526 4.84839H16.0536V4.79839V4.68114C16.0536 3.99114 15.4923 3.42977 14.8024 3.42977H3.19879C2.50898 3.42977 1.94766 3.99114 1.94766 4.68114V4.79839C1.94766 5.48839 2.50898 6.04976 3.19879 6.04976H14.8024C15.4755 6.04976 16.0262 5.51531 16.0526 4.84839Z" fill="#419BDF" stroke="white" stroke-width="0.1"/>
<path d="M6.58829 16.9891C6.58829 17.2606 6.36811 17.4808 6.09649 17.4808C5.82486 17.4808 5.60465 17.2606 5.60469 16.9891V10.8885C5.60469 10.617 5.82491 10.3967 6.09649 10.3967C6.36806 10.3967 6.58829 10.617 6.58829 10.8885V16.9891Z" fill="#419BDF" stroke="white" stroke-width="0.1"/>
<path d="M9.49261 16.9891C9.49261 17.2606 9.2724 17.4808 9.00078 17.4808C8.72916 17.4808 8.50898 17.2606 8.50898 16.9891V10.8885C8.50898 10.617 8.72921 10.3967 9.00078 10.3967C9.27231 10.3967 9.49261 10.617 9.49261 10.8885V16.9891Z" fill="#419BDF" stroke="white" stroke-width="0.1"/>
<path d="M12.3969 16.9891C12.3969 17.2606 12.1767 17.4808 11.9051 17.4808C11.6335 17.4808 11.4132 17.2606 11.4133 16.9891V10.8885C11.4133 10.617 11.6335 10.3967 11.9051 10.3967C12.1767 10.3967 12.3969 10.617 12.3969 10.8885V16.9891Z" fill="#419BDF" stroke="white" stroke-width="0.1"/>
</svg>
