<svg width="72" height="52" viewBox="0 0 72 52" fill="none" xmlns="http://www.w3.org/2000/svg">
<path d="M56.0559 52H44.6013H41.5168H40.8506V36.5066H45.8756C47.15 36.5066 47.903 35.0463 47.15 33.9949L37.3751 20.3561C36.7524 19.4799 35.4636 19.4799 34.8409 20.3561L25.0661 33.9949C24.3131 35.0463 25.0516 36.5066 26.3404 36.5066H31.3654V52H30.6993H27.6148H14.3355C6.73284 51.5765 0.679688 44.4066 0.679688 36.638C0.679688 31.2789 3.56145 26.606 7.83342 24.0798C7.44242 23.0138 7.23969 21.8748 7.23969 20.6773C7.23969 15.2013 11.6275 10.7767 17.058 10.7767C18.2309 10.7767 19.3605 10.9812 20.4176 11.3755C23.56 4.65824 30.3373 0 38.215 0C48.4098 0.0146026 56.8089 7.88543 57.7647 17.9174C65.5991 19.2755 71.5508 26.5914 71.5508 34.8711C71.5508 43.7203 64.7157 51.3867 56.0559 52Z" fill="#8E96A7"/>
</svg>
